<svg width="40" height="40" viewBox="0 0 40 40" xmlns="http://www.w3.org/2000/svg">
  <!-- Concept 3: Minimalist interconnected links representing MCP connectivity -->
  <defs>
    <linearGradient id="linkGradient" x1="0%" y1="0%" x2="100%" y2="100%">
      <stop offset="0%" style="stop-color:#5B5FCF;stop-opacity:1" />
      <stop offset="100%" style="stop-color:#3B82F6;stop-opacity:1" />
    </linearGradient>
    <linearGradient id="accentGradient" x1="0%" y1="0%" x2="100%" y2="0%">
      <stop offset="0%" style="stop-color:#10B981;stop-opacity:1" />
      <stop offset="100%" style="stop-color:#06B6D4;stop-opacity:1" />
    </linearGradient>
  </defs>

  <!-- Main interconnected shape -->
  <g transform="translate(20, 20)">
    <!-- Outer ring segments -->
    <path d="M 0,-12 A 12,12 0 0,1 10.4,6" stroke="url(#linkGradient)" stroke-width="3" fill="none" stroke-linecap="round"/>
    <path d="M -10.4,6 A 12,12 0 0,1 10.4,6" stroke="url(#linkGradient)" stroke-width="3" fill="none" stroke-linecap="round" opacity="0.7"/>
    <path d="M -10.4,6 A 12,12 0 0,1 0,-12" stroke="url(#linkGradient)" stroke-width="3" fill="none" stroke-linecap="round" opacity="0.4"/>

    <!-- Inner connections -->
    <line x1="0" y1="-12" x2="0" y2="-6" stroke="url(#accentGradient)" stroke-width="2" stroke-linecap="round"/>
    <line x1="-10.4" y1="6" x2="-5.2" y2="3" stroke="url(#accentGradient)" stroke-width="2" stroke-linecap="round"/>
    <line x1="10.4" y1="6" x2="5.2" y2="3" stroke="url(#accentGradient)" stroke-width="2" stroke-linecap="round"/>

    <!-- Center hub -->
    <circle cx="0" cy="0" r="4" fill="url(#linkGradient)"/>
    <circle cx="0" cy="0" r="2" fill="white"/>

    <!-- Connection points -->
    <circle cx="0" cy="-12" r="2" fill="url(#accentGradient)"/>
    <circle cx="-10.4" cy="6" r="2" fill="url(#accentGradient)"/>
    <circle cx="10.4" cy="6" r="2" fill="url(#accentGradient)"/>
  </g>
</svg>
